#!OML:ASF F:\VICON\USERDATA\INSTALL\rory3\rory3.ASF
:FULLY-SPECIFIED
:DEGREES
29
root -0.6176462853670913 17.6065632610314 -5.6440082525184305 0.3944037589594913 8.745684967652728 -2.0277814648883687
lfemur -29.807005949120047 -0.16110511541180422 -22.279252803094096
ltibia 46.64105457375537
lfoot -3.7398188923804248 -16.335344278075798
ltoes 10.521864678375843
rfemur -5.623901464352331 -4.2034782282068255 27.762463615865897
rtibia 97.13456707308572
rfoot 18.97390623539033 -8.077939026540827
rtoes 10.28899750151963
lowerback 16.88427932599705 1.3742504756246585 1.969891284470128
upperback -0.018915535492666558 2.265947414921984 0.5377247415942812
thorax -7.5013894580344616 1.0956883225297886 -0.268130982507617
lowerneck -18.232725677191993 -4.764075357194525 -2.6806751143174137
upperneck 14.655312262097986 -6.3475508262452625 4.354424727058888
head 7.747925214394551 -2.798428032511286 1.4525805604655115
lclavicle -6.465782237766885e-16 -4.8598481156034224e-15
lhumerus -56.19197668106325 -16.01386885757361 98.82462227943486
lradius 112.23225886949301
lwrist 15.825216715829802
lhand -32.89456659342156 0.9989872799747005
lfingers 7.125019999999998
lthumb -6.408304746035199 30.600836008610774
rclavicle -6.619447916763448e-16 -4.8697234285289235e-15
rhumerus -52.85358473322266 15.500008776055212 -100.64861055099607
rradius 122.13463356226738
rwrist -10.184430085938564
rhand -19.478377234942702 34.626978447873576
rfingers 7.125019999999998
rthumb 6.1795975646760635 5.643886087623595
30
root -0.6285868697727467 17.35863881449177 -4.686819679749325 1.118040762884077 9.176877231154748 -1.4450447287389865
lfemur -29.333271584741258 -0.7380971920206045 -23.195349121119815
ltibia 51.93756687859465
lfoot -9.69330650619628 -10.837694480928608
ltoes 12.726178976129694
rfemur -10.765411527082328 -6.276579391459526 25.659313882605016
rtibia 103.81572452881974
rfoot 17.959227217600645 -7.902084033211619
rtoes 11.208646735070824
lowerback 17.238979004939765 1.2073227417169548 1.4782481339622513
upperback 0.021221046121858045 1.960199425149678 0.3221491936610559
thorax -8.56278189839105 0.9377230770321002 0.23597647071988753
lowerneck -18.319841436616677 -4.713554339095071 -2.5205108317319804
upperneck 14.746944959462386 -6.303800868239078 4.42494479905647
head 7.707101616323452 -2.759174890583228 1.408963010021938
lclavicle -6.477802502960828e-16 -4.860697052110268e-15
lhumerus -51.97810910714487 -16.70493854451006 98.62977700900767
lradius 111.07064183733218
lwrist 18.28245976349653
lhand -33.53216655742644 1.517514374739442
lfingers 7.125019999999998
lthumb -7.140928612680451 31.23078857568169
rclavicle -6.540994115760665e-16 -4.864275160624406e-15
rhumerus -52.67801801046249 14.000162936025918 -100.58873910662949
rradius 119.34855082957647
rwrist -10.065272483496583
rhand -19.090879187496853 33.44443263738935
rfingers 7.125019999999998
rthumb 6.243087992072812 5.458481861519294
31
root -0.6461452383911241 17.122913385045624 -3.9893094501578883 1.7727954892795317 8.887024240411478 0.4684351920833769
lfemur -27.676161525082712 -1.7623151434667905 -25.802709334085993
ltibia 54.27231490587272
lfoot -14.989353161915085 -5.694426339103935
ltoes 6.87848366211975
rfemur -16.213605560927252 -7.6329275063148145 22.01080052171626
rtibia 109.36429393622726
rfoot 17.090878634365502 -7.274361368807413
rtoes 13.721109416128986
lowerback 17.950256229844015 1.1474397247718304 -0.2238657943323792
upperback 0.13844643061550865 1.600857973675648 -0.18142458830924646
thorax -9.106285793449407 0.8196719328060115 0.6074107910459815
lowerneck -18.702706134262428 -4.680862737308463 -2.406719915757314
upperneck 14.991675985056549 -6.342237299673344 4.448627622278645
head 7.8128612110227955 -2.755675818710383 1.312921870594416
lclavicle -6.459776648959656e-16 -4.85942239106925e-15
lhumerus -47.47172768640734 -16.97780424470331 98.3302014477462
lradius 110.0931340144638
lwrist 21.25264084725701
lhand -33.9439796808612 2.084593262335106
lfingers 7.125019999999998
lthumb -7.532190609352846 31.820566394134204
rclavicle -6.516248756970558e-16 -4.862787493079179e-15
rhumerus -52.35318696931688 12.50742532618912 -100.50546072108826
rradius 117.1143539252425
rwrist -10.118190559650799
rhand -20.034313771917162 36.18420113902391
rfingers 7.125019999999998
rthumb 6.032058056624883 5.719565178874056
32
root -0.6631251375151527 16.980926055014496 -3.321422425528601 2.5831069975678065 7.879283952505435 2.409425706190401
lfemur -25.16145000419669 -2.7007214299048488 -28.435363806613026
ltibia 54.63293653814364
lfoot -19.068961580123084 -2.278368164768559
ltoes 1.5544780653844192
rfemur -22.168160804832638 -8.04550982590777 18.60611014406981
rtibia 113.15627242232779
rfoot 16.23897780710406 -6.403086917501598
rtoes 16.07080140175667
lowerback 18.231591803483216 1.1266065981659708 -2.099893736063425
upperback 0.25644936384696126 1.2332189521608043 -0.7152064719057301
thorax -9.151859098407845 0.6614755549701575 0.8322018544168193
lowerneck -18.980262654357475 -4.596986944154167 -2.323941651632999
upperneck 15.009026733570622 -6.248141406064181 4.425408034741983
head 7.878704049890907 -2.7074294284593448 1.2627354753457252
lclavicle -6.445449142794968e-16 -4.858410532716726e-15
lhumerus -43.31230110845708 -16.977816381287507 97.98900396822204
lradius 109.82740169506859
lwrist 23.896498534697496
lhand -34.05130215156679 1.9759447603602742
lfingers 7.125019999999998
lthumb -7.557610261001448 31.658466061722105
rclavicle -6.570588269890333e-16 -4.866608941933348e-15
rhumerus -51.80339841427302 11.227663229282177 -100.32756886303244
rradius 115.16155100601412
rwrist -10.481031173632807
rhand -19.16289966174236 35.04252830777528
rfingers 7.125019999999998
rthumb 6.38494636920222 5.0451580471907045
